
        <svg xmlns="http://www.w3.org/2000/svg" xmlns:xlink="http://www.w3.org/1999/xlink" version="1.1" width="3152.2700703812957" 
        height="674.5564117891395" viewBox="0 0 3152.2700703812957 674.5564117891395">
			
			<g transform="scale(7.613503519064781) translate(10, 10)">
				<defs id="SvgjsDefs10427"></defs><g id="SvgjsG10428" featureKey="symbolContainer" transform="matrix(1.3719999999999999,0,0,1.3719999999999999,0,0)" fill="#5782bb"><circle cx="25" cy="25" r="25"></circle></g><g id="SvgjsG10429" featureKey="symbolFeature-0" transform="matrix(0.7667129181258504,0,0,0.7667129181258504,9.945370373809691,9.867358590582397)" fill="#fffeec"><g xmlns="http://www.w3.org/2000/svg"><g><path fill="#fffeec" d="M38.504,21.337c-4.76,0-8.921-2.971-10.357-7.393c-0.138-0.423-0.249-0.855-0.331-1.283    c-0.99-5.242,2.206-10.399,7.432-11.998c1.062-0.325,2.159-0.49,3.262-0.49c4.76,0,8.922,2.971,10.357,7.392    c0.862,2.654,0.625,5.484-0.667,7.968c-1.334,2.564-3.619,4.451-6.435,5.313C40.704,21.172,39.606,21.337,38.504,21.337z     M38.51,2.174c-0.904,0-1.805,0.135-2.676,0.402c-4.251,1.301-6.853,5.476-6.053,9.712c0.066,0.344,0.156,0.694,0.268,1.038    c1.167,3.595,4.565,6.01,8.455,6.01c0.904,0,1.805-0.135,2.676-0.402c2.299-0.704,4.162-2.24,5.246-4.324    c1.043-2.004,1.234-4.287,0.539-6.427C45.798,4.589,42.399,2.174,38.51,2.174z"></path><polygon fill="#fffeec" points="12.581,52.945 4.606,47.224 28.041,12.374 29.7,13.49 7.348,46.729 12.282,50.27 39.496,19.604     40.992,20.932   "></polygon><rect x="9.412" y="42.218" transform="matrix(0.7912 0.6116 -0.6116 0.7912 29.3328 0.5268)" fill="#fffeec" width="8.966" height="2"></rect><rect x="28.541" y="10.038" transform="matrix(0.8233 0.5677 -0.5677 0.8233 13.0356 -19.7914)" fill="#fffeec" width="19.52" height="2"></rect><path fill="#fffeec" d="M9.192,63.829c-0.743,0-1.507-0.074-2.296-0.235c-2.125-0.433-3.467-1.449-3.99-3.02    c-1.419-4.261,4.276-10.84,4.93-11.576l1.495,1.328c-2.173,2.449-5.325,7.227-4.527,9.616c0.104,0.314,0.423,1.271,2.492,1.692    c5.59,1.137,9.919-2.998,13.74-6.647c1.511-1.442,2.938-2.806,4.295-3.653c4.998-3.12,10.479-2.472,12.69-0.084l-1.467,1.359    c-1.421-1.533-5.858-2.268-10.164,0.421c-1.184,0.739-2.539,2.033-3.974,3.404C18.921,59.772,14.673,63.829,9.192,63.829z"></path></g><g><path fill="#fffeec" d="M42.59,61.48c-2.851,0-5.084-1.484-5.084-3.379s2.233-3.379,5.084-3.379s5.084,1.484,5.084,3.379    S45.44,61.48,42.59,61.48z M42.59,56.723c-1.854,0-3.084,0.83-3.084,1.379s1.23,1.379,3.084,1.379s3.084-0.83,3.084-1.379    S44.443,56.723,42.59,56.723z"></path><path fill="#fffeec" d="M56.24,59.102c-2.851,0-5.084-1.484-5.084-3.379c0-1.894,2.233-3.377,5.084-3.377s5.084,1.483,5.084,3.377    C61.324,57.617,59.091,59.102,56.24,59.102z M56.24,54.346c-1.854,0-3.084,0.829-3.084,1.377c0,0.549,1.23,1.379,3.084,1.379    s3.084-0.83,3.084-1.379C59.324,55.175,58.094,54.346,56.24,54.346z"></path><polygon fill="#fffeec" points="47.627,57.758 45.627,57.758 45.627,42.879 61.324,40.271 61.324,55.723 59.324,55.723     59.324,42.63 47.627,44.574   "></polygon><rect x="52.476" y="39.695" transform="matrix(0.1641 0.9864 -0.9864 0.1641 90.7063 -13.7659)" fill="#fffeec" width="2" height="13.884"></rect></g></g></g><g id="SvgjsG10430" featureKey="nameFeature-0" transform="matrix(2.0270181598955865,0,0,2.0270181598955865,82.92994156261062,-14.892110149374776)" fill="#111111"><path d="M6.4 33.92 c-2.56 -0.08 -2.72 -0.16 -2.84 -2.72 c-0.12 -3.68 -0.2 -7.32 -0.32 -11 c-0.04 -1.96 -0.2 -3.88 -0.24 -5.84 c-0.04 -1.08 0.12 -1.28 1.2 -1.32 c0.8 -0.04 1.64 -0.04 2.44 0 c0.92 0.08 1.16 0.36 1.16 1.28 l0.28 18.12 c0 0.08 0.04 0.16 0.04 0.2 c1.92 0 3.8 0 5.68 -0.04 c0.24 0 0.52 -0.16 0.64 -0.36 c0.36 -0.36 0.6 -0.8 0.88 -1.2 c0.2 -0.36 0.32 -0.72 0.52 -1.08 c0.52 -0.84 1.16 -1.12 1.84 -0.8 c0.64 0.28 0.92 1.08 0.68 1.92 c-0.2 0.8 -0.64 1.48 -1.4 1.84 c-0.84 0.4 -1.76 0.8 -2.64 0.84 c-2.64 0.16 -5.28 0.24 -7.92 0.16 z M5.16 32.68 c1.24 0.48 1.76 0.12 1.8 -1.12 l0.04 -0.48 c-0.12 -5.52 -0.2 -11 -0.28 -16.48 c0 -0.12 -0.08 -0.24 -0.12 -0.4 l-2.44 0 c0 0.76 -0.04 1.4 0 2.08 l0.44 14 c0.04 0.6 0.08 1.2 0.2 1.8 c0 0.24 0.2 0.52 0.36 0.6 z M16.12 31.96 c0.2 0.12 0.92 -0.32 1.04 -0.48 s0.16 -0.36 0.2 -0.6 c0 -0.16 0 -0.32 -0.04 -0.48 c-0.2 -0.44 -0.68 -0.2 -0.92 0.08 c-0.24 0.32 -0.32 0.76 -0.36 1.16 c-0.04 0.2 0 0.32 0.08 0.32 z M48.456 13.36 c0.08 0.56 -0.28 1.24 -0.84 1.48 c-0.28 0.12 -0.6 0.2 -0.88 0.24 c-1.76 0.36 -3.16 1.16 -4 2.84 c-0.96 2.04 -2.04 5 -3.04 7.04 c-0.16 0.32 -0.2 0.72 -0.2 1.12 c0.04 2.88 0.16 2.8 0.2 5.72 c0 0.24 0 0.48 -0.04 0.68 c-0.12 0.68 -0.44 1.04 -1.08 1.04 c-0.92 0 -1.84 -0.04 -2.76 -0.12 c-1.16 -0.16 -1.16 -1.16 -1.2 -2.08 c-0.04 -1.08 -0.12 -2.12 -0.2 -3.16 c-0.08 -0.88 -0.2 -1.8 -0.8 -2.52 c-2.04 -2.64 -4 -6.32 -5.96 -9 c-0.4 -0.52 -0.72 -1.16 -0.96 -1.76 c-0.24 -0.56 -0.08 -0.84 0.48 -1.04 c1 -0.32 2.04 -0.64 3.04 -1 c0.6 -0.2 1 0 1.32 0.48 c0.36 0.56 0.68 1.12 1.08 1.68 c1.92 2.64 3.88 6.32 5.8 8.96 l0.32 0.32 c-0.04 -0.04 0.8 -2 0.84 -2.2 c0.76 -2 1.6 -4 2.8 -5.84 c0.76 -1.12 1.6 -2.24 2.72 -3.04 c0.88 -0.64 3 -1.48 3.36 0.16 z M47.416 13.760000000000002 l0 -0.08 l-0.12 -0.28 c-0.08 -0.08 -0.2 -0.08 -0.32 -0.12 c-0.12 0 -0.2 0 -0.32 0.04 l-0.16 0.12 c-0.2 0.12 -0.44 0.28 -0.6 0.48 c-0.36 0.4 0.24 0.24 0.48 0.24 c0.32 -0.08 0.68 -0.16 0.96 -0.32 l0.08 -0.04 l0 -0.04 z M38.496 32.44 c0.08 -0.24 0.12 -0.32 0.12 -0.44 c-0.04 -3 -0.2 -3 -0.28 -6 c0 -0.28 -0.2 -0.6 -0.36 -0.84 c-1.76 -2.36 -3.52 -5.72 -5.28 -8.12 c-0.72 -1 -1.4 -2.04 -2.16 -3.12 l-2.72 0.92 c0.28 0.48 0.52 0.92 0.8 1.32 c2.08 2.76 4.12 6.52 6.24 9.28 c0.52 0.68 0.8 1.36 0.76 2.24 c0 0.28 -0.04 0.4 -0.04 0.48 c0 0.04 0.04 0.16 0.04 0.6 c0 1.16 0.08 2.32 0.12 3.56 z M73.712 37.24 c-0.88 -0.08 -1.68 -0.32 -2.44 -0.72 c-1.8 -1 -3.92 -3.52 -5 -5.4 c-0.64 -1.12 -1.2 -2.28 -1.84 -3.36 c-0.28 -0.56 -0.64 -1.08 -1 -1.6 l-0.16 0.04 c-0.04 0.32 -0.08 0.6 -0.08 0.88 c-0.08 2.36 -0.16 1.6 -0.2 3.96 c-0.04 0.4 -0.04 0.84 -0.08 1.24 c-0.08 0.72 -0.4 1.12 -1.04 1.16 c-0.84 0.08 -1.72 0.12 -2.56 0.04 c-0.8 -0.04 -1.16 -0.48 -1.2 -1.4 c-0.24 -5.24 -0.56 -7.4 -0.44 -12.68 c0.04 -1.68 -0.08 -3.32 -0.08 -5 c-0.04 -1 0 -1.04 0.92 -1.16 c0.96 -0.16 1.96 -0.32 2.92 -0.44 c1.12 -0.12 1.56 0.32 1.6 1.56 l0 1.32 l0.6 -0.56 c1.4 -1.48 3.04 -2.36 4.92 -2.64 c2.96 -0.48 5.36 1.52 6 4.92 c0.88 4.52 -1.72 8.72 -5.92 9.56 c-0.52 0.12 -1 0.2 -1.52 0.2 s-1 -0.08 -1.64 -0.12 c0.76 1.4 1.48 2.8 2.32 4.12 c0.44 0.72 0.92 1.4 1.44 2.04 c0.84 0.96 1.84 1.8 3 2.32 c0.44 0.2 0.96 0.36 1.48 0.4 c0.16 0.04 0.32 0 0.48 0 c0.04 -0.08 0.12 -0.12 0.16 -0.2 l0.72 -1.12 c0.24 -0.36 0.48 -0.72 0.8 -1.04 s0.76 -0.44 1.24 -0.4 c0.96 0.08 1.44 1.04 0.96 1.92 s-1.36 1.48 -2.32 1.84 c-0.68 0.28 -1.32 0.36 -2.04 0.32 z M68.632 25.64 c3.2 -0.76 5.2 -3.76 4.88 -7.24 c-0.32 -3.56 -2.68 -5.36 -5.8 -4.4 c-1.36 0.4 -2.48 1.24 -3.52 2.24 c-0.72 0.68 -1.12 1.48 -1.08 2.56 l0 2.12 c0.08 0.88 0.08 1.72 0.16 2.6 c0.04 0.24 0.08 0.56 0.24 0.68 c0.52 0.48 1.04 0.96 1.64 1.28 c1.12 0.52 2.32 0.44 3.48 0.16 z M59.352 32.16 l2.36 0 c0.4 -7.08 0.36 -10.96 0.12 -18.04 l-3.12 0.44 c0.16 6.96 0.04 10.72 0.64 17.6 z M75.592 35.88 c0.84 -0.28 1.36 -0.76 1.72 -1.52 c-0.76 -0.28 -1.2 0.08 -1.72 1.52 z M88.44800000000001 33.6 c-0.4 0.04 -0.92 0.04 -1.28 -0.16 c-0.24 -0.12 -0.28 -0.56 -0.08 -0.76 c0.12 -0.12 0.28 -0.12 0.4 -0.12 c0.64 -0.04 1.24 -0.08 1.84 -0.08 c0.36 0.04 0.52 -0.12 0.52 -0.52 c-0.08 -3.76 -0.08 -6.6 -0.12 -10.4 c-0.04 -2.36 -0.04 -4.72 0 -7.12 c0 -0.64 -0.24 -0.88 -0.88 -0.88 c-0.56 0.04 -1.08 0 -1.64 -0.04 c-0.4 0 -0.8 -0.04 -0.8 -0.56 s0.44 -0.52 0.8 -0.52 c1.28 0 2.56 0.12 3.8 0.08 c1.84 -0.08 3.72 -0.24 5.56 -0.32 c0.44 -0.04 1.08 -0.12 1.08 0.56 c0 0.6 -0.6 0.52 -1.04 0.56 l-1.8 0.12 c0 6.56 -0.04 12.12 -0.04 18.68 l1.64 -0.12 c0.36 0 1.08 -0.24 1.32 0.16 c0.12 0.2 0.12 0.44 0.08 0.64 c-0.12 0.52 -1 0.28 -1.4 0.32 l-2.68 0.16 c-1.76 0.12 -3.52 0.2 -5.28 0.32 z M91.008 31.96 l2.64 0 c-0.16 -6.48 0.28 -11.88 -0.12 -18.28 l-2.68 0 l0 2 c0 5.44 0 9.96 0.04 15.4 c0 0.32 0.08 0.64 0.12 0.88 z M112.26400000000001 33.24 c-1.36 -0.88 -2.56 -1.96 -3.24 -3.44 c-1.32 -2.72 -2.2 -5.6 -2.08 -8.68 c0.16 -4.36 3.56 -8.6 7.76 -9.64 c3 -0.72 7.44 0.64 9.44 4.16 c0.6 1.12 0.76 2.36 0.44 3.64 c-0.16 0.72 -0.6 1.16 -1.16 1.24 c-0.52 0.04 -1.08 -0.36 -1.36 -1 c-0.52 -1.16 -0.16 -2.2 0.4 -3.2 c0.12 -0.2 0.24 -0.32 0.4 -0.56 c-1.32 -2 -3.24 -2.92 -5.48 -3.28 c-0.28 -0.04 -0.64 0.2 -0.84 0.4 c-1.64 1.84 -2.68 4 -3.28 6.36 c-0.52 2.24 -0.48 4.44 0.2 6.6 c0.68 2.12 1.48 4.2 2.68 6.08 c1 1.64 1.16 1.6 2.76 0.96 c2.52 -0.92 3.84 -2.96 4.68 -5.36 c0.16 -0.52 0.16 -1.08 0.32 -1.6 c0.08 -0.24 0.32 -0.48 0.56 -0.52 c0.36 -0.08 0.6 0.16 0.6 0.56 c0 0.28 -0.08 0.56 -0.16 0.84 c-0.36 1.76 -1.16 3.32 -2.28 4.76 c-2.64 3.24 -7.2 3.64 -10.36 1.68 z M115.624 33.28 c-0.12 -0.2 -0.16 -0.32 -0.24 -0.44 c-1.32 -2.08 -2.28 -4.36 -2.96 -6.72 c-0.32 -1.16 -0.52 -2.4 -0.56 -3.64 c-0.12 -3.4 1.08 -6.44 2.96 -9.24 c0.12 -0.2 0.28 -0.4 0.52 -0.76 c-0.48 0.12 -0.8 0.2 -1.12 0.32 c-3.8 1.32 -6.44 5.44 -6.16 9.52 c0.12 2.36 0.8 4.56 1.76 6.64 s2.6 3.4 4.72 4.12 c0.32 0.08 0.64 0.12 1.08 0.2 z M123.384 19.28 c0.36 -0.72 0.24 -1.44 0.12 -2.32 c-0.76 0.96 -0.8 1.76 -0.12 2.32 z M144.64 33.24 c-3.6 0.32 -6.36 -0.88 -8.32 -3.76 c-1.12 -1.64 -1.88 -3.36 -2.12 -5.24 c-0.2 -1.88 0.36 -3.64 1.2 -5.28 c1.04 -2.12 2.64 -3.8 4.6 -5.2 c2.44 -1.72 6.28 -1.88 8.92 0.08 c3.48 2.56 4.52 4.36 4.56 8.92 c-0.12 2.12 -0.76 4.68 -2.4 6.96 c-1.52 2.16 -3.68 3.28 -6.44 3.52 z M145.12 32.12 c1.96 -0.28 3.56 -1.08 4.72 -2.56 c1.72 -2.2 2.36 -4.68 2.56 -7.36 c-0.04 -0.56 -0.08 -1.16 -0.16 -1.72 c-0.4 -3.12 -3.32 -6.16 -6.48 -6.88 c-0.6 -0.16 -1.04 -0.04 -1.44 0.4 c-1.4 1.56 -2.72 3.2 -3.64 5.08 c-0.64 1.36 -0.96 2.8 -0.72 4.32 c0.08 0.48 0.16 0.96 0.28 1.44 c0.64 2.36 1.68 4.52 3.12 6.56 c0.44 0.64 0.96 0.88 1.76 0.72 z M142.51999999999998 32.2 c-0.16 -0.28 -0.28 -0.44 -0.36 -0.56 c-1.24 -1.84 -2.2 -3.84 -2.84 -5.92 c-0.68 -2.16 -0.92 -4.36 0.12 -6.48 c0.68 -1.36 1.56 -2.64 2.4 -3.96 c0.32 -0.52 0.76 -1 1.16 -1.52 c-0.04 -0.04 -0.04 -0.08 -0.08 -0.16 c-0.48 0.16 -1 0.24 -1.36 0.52 c-1.08 0.76 -2.2 1.52 -3.12 2.48 c-2 2.04 -3.24 4.48 -3.08 7.32 c0.12 2.68 1.48 4.88 3.48 6.76 c0.92 0.88 2.16 1.32 3.68 1.52 z"></path></g>
			</g>
		</svg>
	